<svg width="105" height="41" viewBox="0 0 105 41" fill="none" xmlns="http://www.w3.org/2000/svg">
<rect width="105" height="41" rx="7" fill="#0276B2"/>
<path d="M17.44 32.3C15.58 32.3 14 31.98 12.7 31.34C11.42 30.68 10.44 29.75 9.76 28.55C9.08 27.33 8.7 25.87 8.62 24.17C8.6 23.35 8.59 22.47 8.59 21.53C8.59 20.59 8.6 19.69 8.62 18.83C8.7 17.15 9.08 15.7 9.76 14.48C10.46 13.26 11.45 12.33 12.73 11.69C14.03 11.03 15.6 10.7 17.44 10.7C18.8 10.7 20.02 10.88 21.1 11.24C22.18 11.6 23.1 12.1 23.86 12.74C24.62 13.36 25.21 14.09 25.63 14.93C26.05 15.77 26.27 16.68 26.29 17.66C26.31 17.84 26.25 17.99 26.11 18.11C25.99 18.23 25.84 18.29 25.66 18.29H22.81C22.59 18.29 22.41 18.24 22.27 18.14C22.13 18.02 22.03 17.83 21.97 17.57C21.65 16.25 21.1 15.35 20.32 14.87C19.54 14.39 18.57 14.15 17.41 14.15C16.07 14.15 15 14.53 14.2 15.29C13.4 16.03 12.97 17.26 12.91 18.98C12.85 20.62 12.85 22.3 12.91 24.02C12.97 25.74 13.4 26.98 14.2 27.74C15 28.48 16.07 28.85 17.41 28.85C18.57 28.85 19.54 28.61 20.32 28.13C21.1 27.63 21.65 26.73 21.97 25.43C22.03 25.15 22.13 24.96 22.27 24.86C22.41 24.76 22.59 24.71 22.81 24.71H25.66C25.84 24.71 25.99 24.77 26.11 24.89C26.25 25.01 26.31 25.16 26.29 25.34C26.27 26.32 26.05 27.23 25.63 28.07C25.21 28.91 24.62 29.65 23.86 30.29C23.1 30.91 22.18 31.4 21.1 31.76C20.02 32.12 18.8 32.3 17.44 32.3ZM36.3878 32.3C34.7878 32.3 33.4378 32.02 32.3378 31.46C31.2578 30.9 30.4278 30.11 29.8478 29.09C29.2878 28.07 28.9678 26.88 28.8878 25.52C28.8678 25.16 28.8578 24.72 28.8578 24.2C28.8578 23.68 28.8678 23.24 28.8878 22.88C28.9678 21.5 29.2978 20.31 29.8778 19.31C30.4778 18.29 31.3178 17.5 32.3978 16.94C33.4978 16.38 34.8278 16.1 36.3878 16.1C37.9478 16.1 39.2678 16.38 40.3478 16.94C41.4478 17.5 42.2878 18.29 42.8678 19.31C43.4678 20.31 43.8078 21.5 43.8878 22.88C43.9078 23.24 43.9178 23.68 43.9178 24.2C43.9178 24.72 43.9078 25.16 43.8878 25.52C43.8078 26.88 43.4778 28.07 42.8978 29.09C42.3378 30.11 41.5078 30.9 40.4078 31.46C39.3278 32.02 37.9878 32.3 36.3878 32.3ZM36.3878 29.33C37.4478 29.33 38.2678 29 38.8478 28.34C39.4278 27.66 39.7478 26.67 39.8078 25.37C39.8278 25.07 39.8378 24.68 39.8378 24.2C39.8378 23.72 39.8278 23.33 39.8078 23.03C39.7478 21.75 39.4278 20.77 38.8478 20.09C38.2678 19.41 37.4478 19.07 36.3878 19.07C35.3278 19.07 34.5078 19.41 33.9278 20.09C33.3478 20.77 33.0278 21.75 32.9678 23.03C32.9478 23.33 32.9378 23.72 32.9378 24.2C32.9378 24.68 32.9478 25.07 32.9678 25.37C33.0278 26.67 33.3478 27.66 33.9278 28.34C34.5078 29 35.3278 29.33 36.3878 29.33ZM54.2917 32.3C52.6317 32.3 51.2517 32.01 50.1517 31.43C49.0717 30.83 48.2617 29.96 47.7217 28.82C47.1817 27.68 46.8717 26.29 46.7917 24.65C46.7917 24.07 46.7917 23.47 46.7917 22.85C46.7917 22.23 46.7917 21.63 46.7917 21.05C46.8317 19.29 47.0017 17.83 47.3017 16.67C47.6217 15.49 48.0917 14.52 48.7117 13.76C49.3317 12.98 50.1317 12.34 51.1117 11.84C52.0917 11.32 53.2517 10.87 54.5917 10.49C55.9317 10.11 57.4817 9.71 59.2417 9.29C59.4417 9.25 59.6217 9.28 59.7817 9.38C59.9617 9.48 60.0617 9.64 60.0817 9.86L60.4717 11.84C60.5117 12.04 60.4817 12.22 60.3817 12.38C60.2817 12.52 60.1417 12.61 59.9617 12.65C58.4417 12.99 57.1317 13.3 56.0317 13.58C54.9317 13.84 54.0217 14.14 53.3017 14.48C52.5817 14.82 52.0117 15.27 51.5917 15.83C51.1917 16.37 50.9117 17.08 50.7517 17.96C50.5917 18.84 50.5417 19.97 50.6017 21.35L49.9117 20.78C50.0317 20.16 50.3417 19.59 50.8417 19.07C51.3417 18.55 51.9517 18.14 52.6717 17.84C53.4117 17.52 54.1917 17.36 55.0117 17.36C56.4517 17.36 57.6617 17.63 58.6417 18.17C59.6217 18.71 60.3717 19.47 60.8917 20.45C61.4317 21.41 61.7317 22.54 61.7917 23.84C61.8317 24.56 61.8317 25.22 61.7917 25.82C61.7317 27.1 61.4117 28.23 60.8317 29.21C60.2517 30.19 59.4217 30.95 58.3417 31.49C57.2617 32.03 55.9117 32.3 54.2917 32.3ZM54.2917 29.54C55.3717 29.54 56.2017 29.21 56.7817 28.55C57.3617 27.89 57.6717 26.93 57.7117 25.67C57.7317 25.45 57.7417 25.19 57.7417 24.89C57.7417 24.57 57.7317 24.27 57.7117 23.99C57.6717 22.73 57.3617 21.77 56.7817 21.11C56.2217 20.45 55.4717 20.12 54.5317 20.12C53.4517 20.12 52.5817 20.45 51.9217 21.11C51.2817 21.77 50.9417 22.73 50.9017 23.99C50.8817 24.27 50.8717 24.57 50.8717 24.89C50.8717 25.19 50.8817 25.45 50.9017 25.67C50.9417 26.93 51.2517 27.89 51.8317 28.55C52.4117 29.21 53.2317 29.54 54.2917 29.54ZM71.8621 32.3C69.6421 32.3 67.8821 31.66 66.5821 30.38C65.2821 29.1 64.5821 27.28 64.4821 24.92C64.4621 24.72 64.4521 24.47 64.4521 24.17C64.4521 23.85 64.4621 23.6 64.4821 23.42C64.5621 21.92 64.9021 20.62 65.5021 19.52C66.1221 18.42 66.9721 17.58 68.0521 17C69.1321 16.4 70.4021 16.1 71.8621 16.1C73.4821 16.1 74.8421 16.44 75.9421 17.12C77.0421 17.78 77.8721 18.71 78.4321 19.91C78.9921 21.09 79.2721 22.46 79.2721 24.02V24.65C79.2721 24.85 79.2021 25.02 79.0621 25.16C78.9221 25.3 78.7421 25.37 78.5221 25.37H68.5621C68.5621 25.37 68.5621 25.4 68.5621 25.46C68.5621 25.52 68.5621 25.57 68.5621 25.61C68.5821 26.31 68.7121 26.96 68.9521 27.56C69.2121 28.14 69.5821 28.61 70.0621 28.97C70.5621 29.33 71.1521 29.51 71.8321 29.51C72.3921 29.51 72.8621 29.43 73.2421 29.27C73.6221 29.09 73.9321 28.89 74.1721 28.67C74.4121 28.45 74.5821 28.27 74.6821 28.13C74.8621 27.89 75.0021 27.75 75.1021 27.71C75.2221 27.65 75.3921 27.62 75.6121 27.62H78.1921C78.3921 27.62 78.5521 27.68 78.6721 27.8C78.8121 27.92 78.8721 28.07 78.8521 28.25C78.8321 28.57 78.6621 28.96 78.3421 29.42C78.0421 29.88 77.6021 30.33 77.0221 30.77C76.4421 31.21 75.7121 31.58 74.8321 31.88C73.9721 32.16 72.9821 32.3 71.8621 32.3ZM68.5621 22.85H75.1921V22.76C75.1921 21.98 75.0621 21.3 74.8021 20.72C74.5421 20.14 74.1621 19.68 73.6621 19.34C73.1621 19 72.5621 18.83 71.8621 18.83C71.1621 18.83 70.5621 19 70.0621 19.34C69.5621 19.68 69.1821 20.14 68.9221 20.72C68.6821 21.3 68.5621 21.98 68.5621 22.76V22.85ZM89.2066 32.3C87.7666 32.3 86.4966 32.03 85.3966 31.49C84.3166 30.95 83.4666 30.17 82.8466 29.15C82.2466 28.11 81.9166 26.86 81.8566 25.4C81.8366 25.1 81.8266 24.71 81.8266 24.23C81.8266 23.73 81.8366 23.32 81.8566 23C81.9166 21.54 82.2466 20.3 82.8466 19.28C83.4666 18.24 84.3166 17.45 85.3966 16.91C86.4966 16.37 87.7666 16.1 89.2066 16.1C90.4866 16.1 91.5766 16.28 92.4766 16.64C93.3766 17 94.1166 17.45 94.6966 17.99C95.2766 18.53 95.7066 19.1 95.9866 19.7C96.2866 20.28 96.4466 20.81 96.4666 21.29C96.4866 21.51 96.4166 21.69 96.2566 21.83C96.1166 21.95 95.9466 22.01 95.7466 22.01H93.1066C92.9066 22.01 92.7466 21.96 92.6266 21.86C92.5266 21.76 92.4266 21.61 92.3266 21.41C92.0266 20.61 91.6266 20.05 91.1266 19.73C90.6466 19.39 90.0266 19.22 89.2666 19.22C88.2666 19.22 87.4666 19.54 86.8666 20.18C86.2866 20.8 85.9766 21.79 85.9366 23.15C85.8966 23.91 85.8966 24.61 85.9366 25.25C85.9766 26.63 86.2866 27.63 86.8666 28.25C87.4666 28.87 88.2666 29.18 89.2666 29.18C90.0466 29.18 90.6766 29.02 91.1566 28.7C91.6366 28.36 92.0266 27.79 92.3266 26.99C92.4266 26.79 92.5266 26.64 92.6266 26.54C92.7466 26.44 92.9066 26.39 93.1066 26.39H95.7466C95.9466 26.39 96.1166 26.46 96.2566 26.6C96.4166 26.72 96.4866 26.89 96.4666 27.11C96.4466 27.47 96.3466 27.88 96.1666 28.34C96.0066 28.78 95.7366 29.24 95.3566 29.72C94.9966 30.18 94.5366 30.61 93.9766 31.01C93.4166 31.39 92.7366 31.7 91.9366 31.94C91.1566 32.18 90.2466 32.3 89.2066 32.3Z" fill="white"/>
</svg>
